<?xml version="1.0" encoding="utf-8"?>
<!-- Generator: Adobe Illustrator 22.1.0, SVG Export Plug-In . SVG Version: 6.00 Build 0)  -->
<svg version="1.1" id="Layer_1" xmlns="http://www.w3.org/2000/svg" xmlns:xlink="http://www.w3.org/1999/xlink" x="0px" y="0px"
	 viewBox="0 0 512 512" style="enable-background:new 0 0 512 512;" xml:space="preserve">
<style type="text/css">
	.st0{fill:#EDCAD6;}
	.st1{fill:#F34876;}
</style>
<path class="st0" d="M348.6,86.3c-55.6,0-80.6,31.2-90.4,49.5c-1.2,2.3-4.6,2.3-5.8,0c-9.8-18.3-34.6-49.5-90.2-49.5
	c-63.3,0-119.1,43.2-119.1,122.2c0,31.9,6.5,59.3,24.6,89.9c36.8,62.3,158.1,143,183.1,158.9c2.8,1.8,6.2,1.8,9,0
	c24.9-15.8,146.3-96.1,183.4-158.9c18.1-30.5,24.5-57.9,24.5-89.9C467.7,129.5,411.9,86.3,348.6,86.3z"/>
<path class="st1" d="M255.3,489.7L255.3,489.7c-7.5,0-14.9-2.1-21.3-6.2c-15.3-9.8-150.6-97.4-193.1-169.3
	C20.9,280.4,12,247.8,12,208.5C12,107.8,87.6,55.1,162.2,55.1c44.7,0,74.3,16.6,93.1,34.2c18.9-17.6,48.5-34.2,93.3-34.2
	c74.7,0,150.3,52.7,150.3,153.4c0,39.4-8.9,72-28.9,105.7c-42.8,72.4-178.2,159.6-193.5,169.3C270.1,487.5,262.8,489.7,255.3,489.7z
	 M162.2,117.4c-40.6,0-87.9,23.8-87.9,91c0,28.3,5.9,49.7,20.2,74C120.9,327,205.2,389.7,255.3,423c50.2-33.1,134.5-95.7,161-140.5
	c14.3-24.2,20.2-45.7,20.2-74c0-67.2-47.4-91-88-91c-37.4,0-54.8,18-62.9,33c-6,11.2-17.6,18.2-30.4,18.2c-12.7,0-24.4-7-30.4-18.2
	C216.9,135.4,199.5,117.4,162.2,117.4z"/>
</svg>
