<?xml version="1.0" encoding="utf-8"?>
<!-- Generator: Adobe Illustrator 22.1.0, SVG Export Plug-In . SVG Version: 6.00 Build 0)  -->
<svg version="1.1" id="Layer_1" xmlns="http://www.w3.org/2000/svg" xmlns:xlink="http://www.w3.org/1999/xlink" x="0px" y="0px"
	 viewBox="0 0 512 512" style="enable-background:new 0 0 512 512;" xml:space="preserve">
<style type="text/css">
	.st0{fill:#F34876;}
	.st1{fill:#EDCAD6;}
</style>
<path class="st0" d="M389.4,194.7c0,49.9-19,99.7-56.9,137.7c-5.7,5.7-15,5.7-20.8,0c-5.7-5.7-5.7-15,0-20.8
	c64.5-64.5,64.5-169.4,0-233.9c-31.7-31.7-73.9-48.9-118.7-48.4c-14.8,0.2-29.6,2.3-43.8,6.4c-7.8,2.2-15.9-2.3-18.1-10.1
	c-2.2-7.8,2.3-15.9,10.1-18.1c16.7-4.8,34.1-7.3,51.5-7.5c52.8-0.6,102.5,19.7,139.8,57C370.4,95,389.4,144.9,389.4,194.7z
	 M259,367.9c0,6.4-4.2,12.3-10.7,14.1c-68,19.4-141.3,0.4-191.3-49.5C-18.9,256.5-18.9,133,57,57c5.7-5.7,15-5.7,20.8,0
	c5.7,5.7,5.7,15,0,20.8c-64.5,64.5-64.5,169.4,0,233.9c42.4,42.4,104.7,58.6,162.5,42.1c7.8-2.2,15.9,2.3,18.1,10.1
	C258.8,365.2,259,366.6,259,367.9z"/>
<path class="st1" d="M279,279c-46.5,46.5-122.1,46.5-168.6,0s-46.5-122.1,0-168.6s122.1-46.5,168.6,0S325.5,232.6,279,279z"/>
<g>
	<path class="st0" d="M328.5,194.7c0,35.8-13.9,69.4-39.2,94.7c-25.3,25.3-58.9,39.2-94.7,39.2s-69.4-13.9-94.7-39.2
		c-25.3-25.3-39.2-58.9-39.2-94.7c0-35.8,13.9-69.4,39.2-94.7s58.9-39.2,94.7-39.2s69.4,13.9,94.7,39.2
		C314.6,125.3,328.5,158.9,328.5,194.7z M90.2,194.7c0,28,10.9,54.2,30.6,73.9c19.7,19.7,46,30.6,73.9,30.6
		c28,0,54.2-10.9,73.9-30.6c19.7-19.7,30.6-46,30.6-73.9c0-28-10.9-54.2-30.6-73.9c-19.7-19.7-46-30.6-73.9-30.6
		c-28,0-54.2,10.9-73.9,30.6C101.1,140.5,90.2,166.8,90.2,194.7z"/>
	<path class="st0" d="M373.4,358.8c0,3.8-1.4,7.5-4.3,10.4c-5.7,5.7-15,5.7-20.8,0l-35.6-35.6c-5.7-5.7-5.7-15,0-20.8
		c5.7-5.7,15-5.7,20.8,0l35.6,35.6C372,351.3,373.4,355,373.4,358.8z"/>
	<path class="st0" d="M512,454c0,3.8-1.4,7.5-4.3,10.4l-43.3,43.3c-2.8,2.8-6.5,4.3-10.4,4.3s-7.6-1.5-10.4-4.3L328.4,392.5
		c-2.8-2.8-4.3-6.5-4.3-10.4c0-3.9,1.5-7.6,4.3-10.4l43.3-43.3c5.7-5.7,15-5.7,20.8,0l115.2,115.2C510.5,446.5,512,450.2,512,454z
		 M453.9,476.6l22.6-22.6l-94.4-94.4l-22.6,22.6L453.9,476.6z"/>
</g>
</svg>
