<?xml version="1.0" encoding="utf-8"?>
<!-- Generator: Adobe Illustrator 22.1.0, SVG Export Plug-In . SVG Version: 6.00 Build 0)  -->
<svg version="1.1" id="Layer_1" xmlns="http://www.w3.org/2000/svg" xmlns:xlink="http://www.w3.org/1999/xlink" x="0px" y="0px"
	 viewBox="0 0 512 512" style="enable-background:new 0 0 512 512;" xml:space="preserve">
<style type="text/css">
	.st0{fill:#EDCAD6;}
	.st1{fill:#F34876;}
</style>
<g>
	<polygon class="st0" points="453.8,287.6 444.2,364 67.8,364 58.2,287.6 	"/>
	<circle class="st0" cx="178.1" cy="199.5" r="35.1"/>
	<circle class="st0" cx="333.9" cy="199.5" r="35.1"/>
</g>
<path class="st1" d="M498.6,186h-60.2c-7.4,0-13.4,6-13.4,13.4s6,13.4,13.4,13.4h11.1l-7.5,61.3H70.1l-7.5-61.3h68.9
	c5.8,20.2,24.5,35.1,46.6,35.1s40.7-14.8,46.6-35.1h62.6c5.8,20.2,24.5,35.1,46.6,35.1c26.7,0,48.5-21.8,48.5-48.5
	c0-23.2-16.4-42.6-38.2-47.4l-39-94.2c-2.8-6.9-10.7-10.1-17.6-7.3c-6.9,2.8-10.1,10.7-7.3,17.6l35.7,86.2
	c-13.9,5.5-24.6,17.2-28.8,31.7h-62.6c-4.2-14.5-14.9-26.2-28.8-31.7l35.7-86.2c2.8-6.9-0.4-14.7-7.3-17.6
	c-6.9-2.8-14.7,0.4-17.6,7.3l-39,94.2c-17.4,3.8-31.3,17-36.3,33.9H13.4C6,186,0,192.1,0,199.5s6,13.4,13.4,13.4h22l29.8,237.8
	c0.9,6.7,6.6,11.8,13.3,11.8h354.8c6.8,0,12.5-5,13.3-11.8l29.8-237.8h22c7.4,0,13.4-6,13.4-13.4S506,186,498.6,186z M333.5,177.9
	c0.4,0,0.9,0.1,1.3,0.1c0.2,0,0.5,0,0.7,0c11.1,0.9,20,10.2,20,21.5c0,11.9-9.7,21.6-21.6,21.6s-21.6-9.7-21.6-21.6
	C312.3,187.7,321.8,178.1,333.5,177.9z M176.4,177.9c0.2,0,0.5,0,0.7,0c0.4,0,0.9-0.1,1.3-0.1c11.7,0.2,21.2,9.8,21.2,21.6
	c0,11.9-9.7,21.6-21.6,21.6s-21.6-9.7-21.6-21.6C156.5,188.1,165.3,178.8,176.4,177.9z M73.4,301.1h365.2l-6.3,49.5H79.7L73.4,301.1
	z M90.4,435.6l-7.4-58.1h345.8l-7.4,58.1H90.4z"/>
</svg>
