<?xml version="1.0" encoding="utf-8"?>
<!-- Generator: Adobe Illustrator 22.1.0, SVG Export Plug-In . SVG Version: 6.00 Build 0)  -->
<svg version="1.1" id="Layer_1" xmlns="http://www.w3.org/2000/svg" xmlns:xlink="http://www.w3.org/1999/xlink" x="0px" y="0px"
	 viewBox="0 0 512 512" style="enable-background:new 0 0 512 512;" xml:space="preserve">
<style type="text/css">
	.st0{fill:#F34876;}
	.st1{fill:#EDCAD6;}
</style>
<g>
	<path class="st0" d="M426.1,511.9h-13.6c-3.7,0-7.3-1.4-10.1-3.8L369,478l-33.5,30.1c-2.8,2.5-6.3,3.8-10.1,3.8h-25.8
		c-3.7,0-7.3-1.4-10-3.8l-43.6-39c-6.2-5.5-6.7-15.1-1.2-21.3c5.5-6.2,15.1-6.7,21.3-1.2l39.3,35.2h14.3l39.3-35.3
		c5.7-5.1,14.4-5.1,20.1,0l32,28.7V36.7l-32,28.8c-5.7,5.1-14.4,5.1-20.1,0l-43.6-39.1c-6.2-5.6-6.7-15.1-1.2-21.3
		c5.5-6.2,15.1-6.7,21.3-1.2L369,34l33.5-30.2c2.8-2.5,6.4-3.9,10.1-3.9h13.6c8.3,0,15.1,6.7,15.1,15.1v481.8
		C441.2,505.2,434.5,511.9,426.1,511.9z"/>
	<path class="st0" d="M186.6,512c-3.6,0-7.2-1.3-10-3.8L143,478.1l-33.5,30c-2.8,2.5-6.3,3.8-10,3.8H85.9c-8.3,0-15.1-6.7-15.1-15.1
		V15.1C70.8,6.7,77.6,0,85.9,0h13.6c3.7,0,7.3,1.4,10.1,3.8L143,33.9l33.5-30.1c2.8-2.5,6.3-3.8,10.1-3.8h25.8
		c3.7,0,7.3,1.4,10.1,3.9l43.6,39.2c6.2,5.6,6.7,15.1,1.1,21.3s-15.1,6.7-21.3,1.1l-39.3-35.4h-14.2l-39.3,35.3
		c-5.7,5.1-14.4,5.1-20.1,0l-32-28.7v438.7l32.1-28.7c5.7-5.1,14.4-5.1,20.1,0l43.6,39.1c6.2,5.6,6.7,15.1,1.2,21.3
		C194.9,510.3,190.7,512,186.6,512z"/>
</g>
<rect x="154.4" y="132" class="st1" width="203.3" height="72.7"/>
<g>
	<path class="st0" d="M357.6,219.7H154.4c-8.3,0-15.1-6.7-15.1-15.1V132c0-8.3,6.7-15.1,15.1-15.1h203.3c8.3,0,15.1,6.7,15.1,15.1
		v72.7C372.7,213,365.9,219.7,357.6,219.7z M169.4,189.6h173.1V147H169.4V189.6z"/>
	<path class="st0" d="M216.3,309.3h-62c-8.3,0-15.1-6.7-15.1-15.1s6.7-15.1,15.1-15.1h62c8.3,0,15.1,6.7,15.1,15.1
		C231.4,302.5,224.7,309.3,216.3,309.3z"/>
	<path class="st0" d="M216.3,389.6h-62c-8.3,0-15.1-6.7-15.1-15.1s6.7-15.1,15.1-15.1h62c8.3,0,15.1,6.7,15.1,15.1
		S224.7,389.6,216.3,389.6z"/>
</g>
<circle class="st1" cx="311.7" cy="334.4" r="46"/>
<path class="st0" d="M311.7,395.4c-33.6,0-61-27.4-61-61s27.4-61,61-61s61,27.4,61,61S345.3,395.4,311.7,395.4z M311.7,303.4
	c-17,0-30.9,13.9-30.9,30.9c0,17,13.9,30.9,30.9,30.9c17,0,30.9-13.9,30.9-30.9C342.6,317.3,328.7,303.4,311.7,303.4z"/>
</svg>
