<svg viewBox="0 -1 480 479" xmlns="http://www.w3.org/2000/svg"><path d="m367.199219 140.042969-32.800781-113.597657c-3.199219-12-15.199219-19.199218-27.199219-16.800781l-67.199219 12-68-12c-11.199219-2.398437-23.199219 4.800781-27.199219 15.199219l-24.800781 68.800781" fill="#d6b676"/><path d="m367.199219 140.042969c-41.597657-9.597657-84-14.398438-127.199219-14.398438-24 0-48.800781 1.601563-72.800781 4-92 12-159.199219 44.800781-159.199219 84 0 31.199219 43.199219 76 108.800781 103.199219l19.199219-87.199219v-24h208v24l19.199219 87.199219c65.601562-27.199219 108.800781-72 108.800781-103.199219 0-30.398437-41.601562-57.601562-104.800781-73.601562zm0 0" fill="#d6b676"/><path d="m360 469.644531h112c0-31.199219-24.800781-56-56-56h-56zm0 0" fill="#fff2d9"/><path d="m120 413.644531h32v56h-32zm0 0" fill="#f9a419"/><path d="m328 413.644531h32v56h-32zm0 0" fill="#f9a419"/><path d="m296 413.644531v-66.398437c-1.601562 1.597656-3.199219 2.398437-5.601562 3.199218l-25.597657 16c-15.199219 9.597657-35.199219 9.597657-50.402343 0l-25.597657-16c-1.601562-.800781-3.199219-2.402343-5.601562-3.199218v66.398437h-32v56h176v-56zm0 0" fill="#fff2d9"/><path d="m136 205.644531v49.601563c0 36.796875 17.601562 71.199218 48 92 1.601562 1.597656 3.199219 2.398437 5.601562 3.199218l25.597657 16c15.199219 9.597657 35.199219 9.597657 50.402343 0l25.597657-16c1.601562-.800781 3.199219-2.402343 5.601562-3.199218 30.398438-20.800782 48-55.203125 48-92v-49.601563l-104-32zm0 0" fill="#fff2d9"/><path d="m344 229.644531v25.601563c0 36.796875-17.601562 71.199218-48 92v66.398437h88zm0 0" fill="#684218"/><path d="m96 413.644531h88v-66.398437c-30.398438-20.800782-48-55.203125-48-92v-25.601563zm0 0" fill="#684218"/><path d="m367.199219 140.042969-8-30.398438c-20.800781-6.398437-41.597657-11.199219-63.199219-16-28.800781-4.800781-59.199219-4.800781-88 0l8 32-8-32-4.800781-19.199219c-.800781-4-5.597657-7.199218-9.597657-5.601562-1.601562 0-2.402343.800781-3.203124 1.601562l-32.796876 28c6.398438 4 10.398438 11.199219 10.398438 19.199219v8c0 1.601563 0 3.199219-.800781 4 24-3.199219 48-4.800781 72.800781-4 43.199219 0 85.601562 4.800781 127.199219 14.398438zm0 0" fill="#f9a419"/><path d="m64 413.644531c-31.199219 0-56 24.800781-56 56h112v-56zm0 0" fill="#fff2d9"/><path d="m125.601562 102.445312-34.402343-12.800781c-4-1.601562-8.800781.800781-10.398438 4.800781 0 .800782-.800781 1.597657-.800781 3.199219v52l40-16zm0 0" fill="#f9a419"/><path d="m167.199219 129.644531c0-1.601562.800781-3.199219.800781-4v-8c0-13.601562-10.398438-24-24-24s-24 10.398438-24 24v8c0 4 .800781 8 3.199219 12" fill="#f9a419"/><path d="m480 213.644531c0-33.601562-41.601562-63.199219-105.601562-80l-30.398438-108.800781c-4.800781-16-20.800781-26.398438-36.800781-23.199219l-60.800781 12-74.398438-12.800781c-16-2.398438-31.199219 8-35.199219 23.199219l-18.402343 67.203125-24-8.800782c-8-3.199218-17.597657.800782-20.796876 9.597657-1.601562 1.601562-1.601562 3.203125-1.601562 4.800781v47.199219c-44.800781 17.601562-72 41.601562-72 68.800781 0 35.199219 44.800781 80 108 108l-18.398438 84.800781h-25.601562c-35.199219 0-64 28.800781-64 64 0 4.800781 3.199219 8 8 8h464c4.800781 0 8-3.199219 8-8 0-35.199219-28.800781-64-64-64h-25.601562l-18.398438-84c63.199219-28 108-72.800781 108-108zm-352-85.601562c0-.796875 0-1.597657 0-2.398438v-8c0-8.800781 7.199219-16 16-16s16 7.199219 16 16v5.601563c-11.199219.796875-21.601562 3.199218-32 4.796875zm41.601562-29.597657 25.597657-22.402343 10.402343 42.402343c-10.402343.800782-20 1.597657-29.601562 2.398438v-3.199219c0-7.199219-2.398438-13.601562-6.398438-19.199219zm52.796876 19.199219-4-17.601562c25.601562-3.199219 51.203124-3.199219 76.800781.800781 28.800781 5.601562 48.800781 11.199219 58.402343 14.402344l4 13.597656c-38.402343-8-77.601562-12-116-12-7.203124.800781-13.601562.800781-19.203124.800781zm-70.398438-89.601562c2.398438-8 9.601562-12.796875 17.601562-12l32 5.601562 3.199219 16 42.398438-8 63.199219-12c8-1.601562 16 3.199219 18.402343 11.199219l19.199219 68.800781c-11.199219-3.199219-28-7.199219-49.601562-12-28-4.800781-56-4.800781-83.199219-.800781l-3.199219-12.800781c-2.398438-8.796875-11.199219-13.597657-19.199219-12-2.402343.800781-4.800781 1.601562-6.402343 3.203125l-28 24c-4-1.601563-8-2.402344-12.796876-2.402344-3.203124 0-5.601562.800781-8.800781 1.601562zm-64 68.800781 25.601562 9.601562c-.800781 4-1.601562 7.199219-1.601562 11.199219v8c0 2.398438 0 4 .800781 6.398438-8.800781 1.601562-16.800781 4-24.800781 6.402343zm-72 116.800781c0-38.398437 90.398438-80 224-80s224 41.601563 224 80c0 24.800781-35.199219 64.800781-95.199219 92l-16.800781-76.800781v-13.597656l21.601562 6.398437 4.796876-15.199219-136-40c-1.597657-.800781-3.199219-.800781-4.796876 0l-136 40 4.796876 15.199219 21.601562-6.398437v13.597656l-16.800781 76.800781c-60-27.199219-95.199219-67.199219-95.199219-92zm336 208v40h-16v-40zm-32 40h-160v-40h24c4.800781 0 8-3.199219 8-8v-52l18.398438 11.199219c17.601562 11.199219 40.800781 11.199219 58.402343 0l18.398438-11.199219v52c0 4.800781 3.199219 8 8 8h24v40zm-176-40v40h-16v-40zm142.398438-78.398437-25.597657 16c-12.800781 8-28.800781 8-41.601562 0l-25.597657-16c-30.402343-19.203125-49.601562-52.800782-49.601562-88.800782v-44.800781l96-28 96 28v44.800781c0 36.800782-19.199219 70.398438-49.601562 88.800782zm-154.398438-57.601563c7.199219 26.398438 22.398438 48.800781 44 65.601563v54.398437h-70.398438zm-68 136h48v40h-95.199219c4-23.199219 24-40 47.199219-40zm399.199219 40h-95.199219v-40h48c23.199219 0 43.199219 16.800781 47.199219 40zm-159.199219-56v-54.398437c21.601562-16 36.800781-39.203125 44-65.601563l26.398438 120zm0 0"/><path d="m227.199219 246.445312-13.597657-5.601562c-19.203124-8-40.800781-5.597656-58.402343 6.402344l8.800781 13.597656c12.800781-8.800781 28.800781-10.398438 43.199219-4.800781l13.601562 5.601562zm0 0"/><path d="m324.800781 247.246094c-17.601562-11.203125-39.199219-13.601563-58.402343-6.402344l-13.597657 5.601562 5.597657 15.199219 13.601562-5.601562c14.398438-5.597657 30.398438-4 43.199219 4.800781zm0 0"/><path d="m240 322.445312-22.398438-4.800781-3.203124 16 22.402343 4.800781c13.597657 3.199219 28-4 34.398438-16.800781l-14.398438-7.199219c-3.199219 5.597657-9.601562 9.597657-16.800781 8zm0 0"/></svg>