<?xml version="1.0" encoding="utf-8"?>
<!-- Generator: Adobe Illustrator 22.1.0, SVG Export Plug-In . SVG Version: 6.00 Build 0)  -->
<svg version="1.1" id="Layer_1" xmlns="http://www.w3.org/2000/svg" xmlns:xlink="http://www.w3.org/1999/xlink" x="0px" y="0px"
	 viewBox="0 0 512 512" style="enable-background:new 0 0 512 512;" xml:space="preserve">
<style type="text/css">
	.st0{fill:#EDCAD6;}
	.st1{fill:#F34876;}
</style>
<g>
	<circle class="st0" cx="407.4" cy="361.3" r="47.5"/>
	<path class="st0" d="M63.1,111.5v243h55.7c3.3-23,23.1-40.7,47-40.7c23.9,0,43.7,17.7,47,40.7h55.5l0-243H63.1z"/>
</g>
<path class="st1" d="M0,252.5c0,7.7,6.3,14,14,14h35.1v88.1c0,7.7,6.3,14,14,14h43.3c2.4,4.1,6.9,6.8,12,6.8c7.7,0,14-6.3,14-14
	c0-1.6,0.1-3.2,0.3-4.8c0,0,0,0,0,0c0.1-1,0.3-1.9,0.5-2.9c0-0.1,0-0.2,0.1-0.2c0.2-0.9,0.5-1.8,0.8-2.7c0-0.1,0.1-0.2,0.1-0.3
	c0.3-0.9,0.6-1.8,1-2.6c0,0,0-0.1,0.1-0.1c4.5-10,13.7-17.3,24.5-19.3c0,0,0,0,0.1,0c1-0.2,1.9-0.3,2.9-0.4c0.1,0,0.1,0,0.2,0
	c1-0.1,1.9-0.1,2.9-0.1s2,0.1,2.9,0.1c0.1,0,0.1,0,0.2,0c1,0.1,1.9,0.2,2.9,0.4c0,0,0,0,0.1,0c10.9,2,20.1,9.4,24.5,19.4
	c0,0,0,0.1,0.1,0.1c0.4,0.9,0.7,1.7,1,2.6c0,0.1,0.1,0.2,0.1,0.3c0.3,0.9,0.6,1.8,0.8,2.7c0,0.1,0,0.2,0.1,0.2
	c0.2,0.9,0.4,1.9,0.6,2.9l0,0c0.2,1.6,0.3,3.2,0.3,4.8c0,18.5-15,33.5-33.5,33.5c-7.7,0-14,6.3-14,14c0,7.7,6.3,14,14,14
	c31.5,0,57.5-23.8,61-54.3h119.5c3.6,30.5,29.6,54.3,61,54.3s57.5-23.8,61-54.3h6.2c20.6,0,37.4-16.8,37.4-37.4v-46.8
	c0-10.9-4.7-21.2-12.9-28.3l-32.6-31.7l-32.6-86c-0.1-0.2-0.2-0.5-0.3-0.7c-13-29.3-42.2-48.2-74.2-48.3l-29.1,0.1
	c-7.7,0-13.9,6.3-13.9,14v70.5c0,7.7,6.3,14,14,14s14-6.3,14-14v-56.6l15-0.1c20.8,0.1,39.9,12.4,48.5,31.4l25.4,66.9H395
	c-7.7,0-14,6.3-14,14s6.3,14,14,14h51.2l33.8,32.8c0.2,0.2,0.5,0.5,0.8,0.7c2.1,1.8,3.4,4.4,3.4,7.2v46.8c0,5.2-4.2,9.5-9.5,9.5
	h-9.3c-8.5-23.7-31.3-40.7-57.9-40.7c-26.6,0-49.3,17-57.9,40.7h-5.2v-70.7c0-7.7-6.3-14-14-14c-7.7,0-14,6.3-14,14v70.7h-34.1v-229
	c0-7.7-6.3-14-14-14H63.1c-7.7,0-14,6.3-14,14v28.3h-7.2c-7.7,0-14,6.3-14,14s6.3,14,14,14h7.2v21.4H27.9c-7.7,0-14,6.3-14,14
	s6.3,14,14,14h21.2v21.4H14C6.3,238.5,0,244.7,0,252.5z M373.8,361.3c0-18.5,15-33.5,33.5-33.5s33.5,15,33.5,33.5
	s-15,33.5-33.5,33.5C388.9,394.8,373.8,379.8,373.8,361.3z M77,340.5L77,340.5l0-74.1h2.5c7.7,0,14-6.3,14-14s-6.3-14-14-14H77
	v-21.4h16.5c7.7,0,14-6.3,14-14s-6.3-14-14-14H77v-21.4h30.5c7.7,0,14-6.3,14-14s-6.3-14-14-14H77v-14.3h177.4v215.1h0h-30.7
	c-0.3-0.7-0.5-1.4-0.8-2.1c0-0.1,0-0.1-0.1-0.2c-0.3-0.7-0.6-1.4-0.9-2.1c0,0,0,0,0,0c-8.6-19.1-26.6-33-48.1-35.8
	c-0.4,0-0.7-0.1-1.1-0.1c-0.5-0.1-0.9-0.1-1.4-0.1c-0.5-0.1-1.1-0.1-1.6-0.1c-0.4,0-0.7,0-1.1-0.1c-0.9,0-1.9-0.1-2.8-0.1
	s-1.9,0-2.8,0.1c-0.4,0-0.7,0-1.1,0.1c-0.6,0-1.1,0.1-1.6,0.1c-0.5,0-0.9,0.1-1.4,0.1c-0.4,0-0.7,0.1-1.1,0.1
	c-21.5,2.8-39.5,16.7-48.1,35.8c0,0,0,0,0,0c-0.3,0.7-0.6,1.4-0.9,2.1c0,0.1,0,0.1-0.1,0.2c-0.3,0.7-0.6,1.4-0.8,2.1L77,340.5
	L77,340.5z"/>
</svg>
